<svg width="16" height="16" fill="none" xmlns="http://www.w3.org/2000/svg"><path opacity=".982" fill-rule="evenodd" clip-rule="evenodd" d="M14.422 1.14c.345-.057.543.084.594.423a.716.716 0 0 1-.11.296L7.22 14.234c-.46.572-1.038.734-1.735.485l-.312-.188-3.985-4.86c-.399-.764-.279-1.436.36-2.015a1.63 1.63 0 0 1 1.406-.187c.156.067.302.15.438.25l2.625 2.406c.136.1.272.1.406 0a1569.65 1569.65 0 0 0 7.828-8.86c.063-.037.12-.078.172-.124Z" fill="url(#a)"/><defs><linearGradient id="a" x1="7.986" y1="1.128" x2="7.986" y2="14.832" gradientUnits="userSpaceOnUse"><stop stop-color="#39F"/><stop offset="1" stop-color="#8E88FF"/></linearGradient></defs></svg>