<svg width="14" height="14" fill="none" xmlns="http://www.w3.org/2000/svg"><path d="M7 13A6 6 0 1 0 7 1a6 6 0 0 0 0 12Z" fill="#fff" stroke="#5EC1C7" stroke-width="1.05" stroke-linecap="round"/><path d="M9.937 6.496 8.622 7.841l.31 1.9a.232.232 0 0 1-.012.121.22.22 0 0 1-.072.096.205.205 0 0 1-.222.017L7 9.078l-1.625.896a.203.203 0 0 1-.223-.017.22.22 0 0 1-.071-.095.232.232 0 0 1-.013-.121l.31-1.9-1.314-1.345a.232.232 0 0 1 .011-.328.207.207 0 0 1 .106-.05l1.817-.276.813-1.729c.071-.15.307-.15.379 0l.812 1.729 1.818.277a.207.207 0 0 1 .105.05c.03.026.052.061.065.1a.232.232 0 0 1-.053.227Z" fill="#5EC1C7"/></svg>