<svg width="16" height="16" fill="none" xmlns="http://www.w3.org/2000/svg"><path d="M16 8.048a7.953 7.953 0 1 0-15.907 0 7.953 7.953 0 0 0 15.907 0Z" fill="url(#a)"/><path d="M14.033 2.816c-1.16 2.128-2.8 4.324-4.849 6.373-2.049 2.049-4.245 3.686-6.37 4.845a7.576 7.576 0 0 1-.388-.362A7.952 7.952 0 1 1 13.67 2.424c.125.126.246.256.362.392Z" fill="#fff" fill-opacity=".063"/><path d="M9.93 3.862H6.163A2.302 2.302 0 0 0 3.86 6.164v3.768a2.302 2.302 0 0 0 2.303 2.302H9.93a2.302 2.302 0 0 0 2.303-2.302V6.164A2.302 2.302 0 0 0 9.93 3.862Zm1.57 5.74a1.9 1.9 0 0 1-1.9 1.9H6.493a1.9 1.9 0 0 1-1.9-1.9V6.494a1.9 1.9 0 0 1 1.9-1.9H9.6a1.9 1.9 0 0 1 1.9 1.9V9.6Z" fill="#fff"/><path d="m9.573 6.537-.02-.02-.016-.017a2.11 2.11 0 0 0-3.005.025 2.147 2.147 0 0 0-.618 1.523c0 .573.225 1.122.628 1.529a2.112 2.112 0 0 0 1.509.628 2.169 2.169 0 0 0 1.522-3.668Zm-1.526 2.93a1.42 1.42 0 1 1 1.399-1.419 1.408 1.408 0 0 1-1.4 1.42Zm2.765-3.681a.51.51 0 0 1-.701.475.504.504 0 0 1-.303-.372.516.516 0 0 1 .498-.616.5.5 0 0 1 .323.117l.01.01c.018.014.033.03.047.046l.011.013a.515.515 0 0 1 .115.327Z" fill="#fff"/><defs><linearGradient id="a" x1="2.423" y1="2.424" x2="13.671" y2="13.672" gradientUnits="userSpaceOnUse"><stop stop-color="#FAE100"/><stop offset=".15" stop-color="#FCB720"/><stop offset=".3" stop-color="#FF7950"/><stop offset=".5" stop-color="#FF1C74"/><stop offset="1" stop-color="#6C1CD1"/></linearGradient></defs></svg>