<svg width="97" height="84" fill="none" xmlns="http://www.w3.org/2000/svg"><path d="M48.032 71.627c-18.823 0-34.082-15.258-34.082-34.08 0-9.174 3.624-17.5 9.519-23.627" stroke="#AEAEAB" stroke-width="2.773" stroke-miterlimit="10" stroke-linecap="round" stroke-linejoin="round"/><path d="M13.95 43.473c1.157-1.157-.558-4.75-3.832-8.023-3.273-3.273-6.865-4.989-8.023-3.831-1.157 1.157.559 4.75 3.832 8.023 3.274 3.273 6.866 4.988 8.023 3.831Z" stroke="#AEAEAB" stroke-width="2.773" stroke-miterlimit="10" stroke-linecap="round" stroke-linejoin="round"/><path d="M21.973 39.641c3.273-3.273 4.989-6.865 3.831-8.022-1.157-1.158-4.749.558-8.022 3.831-3.274 3.274-4.99 6.866-3.832 8.023 1.157 1.157 4.75-.558 8.023-3.832Zm-6.455-13.926c1.58-.428 1.88-4.397.67-8.866-1.21-4.468-3.47-7.744-5.05-7.316-1.58.427-1.88 4.396-.671 8.865 1.21 4.469 3.47 7.744 5.05 7.317Z" stroke="#AEAEAB" stroke-width="2.773" stroke-miterlimit="10" stroke-linecap="round" stroke-linejoin="round"/><path d="M15.517 25.715a13.296 13.296 0 0 1 7.317-5.05c3.066-.83 6.17-.517 8.865.67a13.296 13.296 0 0 1-7.317 5.051c-.73.198-1.477.334-2.23.406M33.05 10.913c4.22-3.043 6.768-6.72 5.692-8.211-1.076-1.492-5.369-.235-9.589 2.808-4.22 3.043-6.769 6.72-5.693 8.212 1.076 1.492 5.37.234 9.59-2.809ZM21.335 59.5c.434-1.578-2.834-3.852-7.298-5.078-4.464-1.226-8.434-.941-8.867.637-.434 1.578 2.833 3.852 7.297 5.078 4.464 1.226 8.435.941 8.868-.637Z" stroke="#AEAEAB" stroke-width="2.773" stroke-miterlimit="10" stroke-linecap="round" stroke-linejoin="round"/><path d="M26.413 52.202c1.227-4.464.941-8.434-.637-8.867-1.578-.434-3.852 2.833-5.078 7.297-1.226 4.464-.941 8.435.637 8.868 1.578.434 3.852-2.834 5.078-7.298Zm2.044 22.692c4.483-1.158 7.785-3.38 7.376-4.965-.41-1.585-4.375-1.932-8.857-.774-4.483 1.157-7.785 3.38-7.376 4.965.41 1.585 4.375 1.931 8.857.774Z" stroke="#AEAEAB" stroke-width="2.773" stroke-miterlimit="10" stroke-linecap="round" stroke-linejoin="round"/><path d="M35.832 69.928c1.585-.409 1.932-4.374.774-8.856-1.157-4.483-3.38-7.785-4.965-7.376-1.585.41-1.931 4.375-.774 8.857 1.158 4.483 3.38 7.785 4.965 7.376Zm12.2 1.699c18.822 0 34.08-15.258 34.08-34.08 0-9.174-3.623-17.5-9.518-23.627" stroke="#AEAEAB" stroke-width="2.773" stroke-miterlimit="10" stroke-linecap="round" stroke-linejoin="round"/><path d="M90.135 39.642c3.273-3.273 4.988-6.865 3.831-8.023-1.157-1.157-4.75.559-8.023 3.832-3.273 3.274-4.988 6.865-3.831 8.023 1.157 1.157 4.75-.558 8.023-3.832Z" stroke="#AEAEAB" stroke-width="2.773" stroke-miterlimit="10" stroke-linecap="round" stroke-linejoin="round"/><path d="M82.113 43.473a13.295 13.295 0 0 0-3.832-8.022 13.296 13.296 0 0 0-8.022-3.832 13.296 13.296 0 0 0 3.831 8.023c.497.497 1.032.954 1.6 1.367m9.907-22.614c1.21-4.468.91-8.437-.67-8.865-1.58-.428-3.842 2.848-5.051 7.317-1.21 4.468-.91 8.438.67 8.865 1.58.428 3.841-2.848 5.051-7.317Z" stroke="#AEAEAB" stroke-width="2.773" stroke-miterlimit="10" stroke-linecap="round" stroke-linejoin="round"/><path d="M80.546 25.713c.428-1.58-2.848-3.841-7.316-5.05-4.469-1.21-8.438-.91-8.866.67-.428 1.58 2.848 3.84 7.317 5.05s8.438.91 8.865-.67Zm-7.941-11.986c1.076-1.492-1.473-5.169-5.693-8.212s-8.513-4.3-9.59-2.808c-1.075 1.492 1.474 5.168 5.694 8.211s8.513 4.3 9.589 2.809Zm10.993 46.419c4.464-1.226 7.732-3.5 7.298-5.078-.433-1.578-4.403-1.864-8.868-.638-4.464 1.226-7.731 3.5-7.298 5.078.433 1.578 4.404 1.863 8.868.638Z" stroke="#AEAEAB" stroke-width="2.773" stroke-miterlimit="10" stroke-linecap="round" stroke-linejoin="round"/><path d="M74.729 59.508c1.578-.433 1.864-4.404.638-8.868s-3.5-7.731-5.078-7.298c-1.578.434-1.864 4.404-.638 8.868s3.5 7.732 5.078 7.298Zm1.728 14.612c.41-1.584-2.892-3.807-7.375-4.965-4.482-1.157-8.447-.81-8.857.774-.409 1.585 2.893 3.808 7.375 4.965 4.483 1.157 8.448.811 8.858-.774Z" stroke="#AEAEAB" stroke-width="2.773" stroke-miterlimit="10" stroke-linecap="round" stroke-linejoin="round"/><path d="M65.19 62.553c1.158-4.482.812-8.447-.773-8.856-1.585-.41-3.808 2.892-4.965 7.375-1.157 4.482-.81 8.447.774 8.857 1.585.409 3.808-2.893 4.965-7.376ZM40.622 82l7.41-10.373L55.44 82" stroke="#AEAEAB" stroke-width="2.773" stroke-miterlimit="10" stroke-linecap="round" stroke-linejoin="round"/></svg>