<svg width="12" height="12" fill="none" xmlns="http://www.w3.org/2000/svg"><path d="M5 10.6c1.795 0 3.25-2.06 3.25-4.6 0-2.54-1.455-4.6-3.25-4.6S1.75 3.46 1.75 6c0 2.54 1.455 4.6 3.25 4.6Z" fill="#583150"/><path d="M12 6a7.3 7.3 0 0 0-.07-1h.005l-.04-.227c-.002-.015-.006-.029-.009-.043a6.846 6.846 0 0 0-.565-1.744c-.019-.039-.037-.077-.057-.115-.025-.05-.047-.102-.073-.15l-.066-.121h-.008c-.21-.365-.452-.7-.722-1h.038l-.35-.33A4.733 4.733 0 0 0 8.495.274L8.45.26a4.284 4.284 0 0 0-.517-.153c-.05-.011-.1-.023-.152-.032a4.156 4.156 0 0 0-.32-.047l-.095-.01A4.196 4.196 0 0 0 7 0H5C2.243 0 0 2.692 0 6s2.243 6 5 6h2c.124 0 .246-.007.367-.018l.096-.009c.107-.011.214-.027.32-.047l.15-.032a4.424 4.424 0 0 0 .517-.152c.016-.006.03-.01.046-.017a4.733 4.733 0 0 0 1.586-.995l.351-.33h-.038c.27-.3.513-.635.722-1h.009l.065-.12c.026-.05.048-.1.073-.15l.058-.118a6.346 6.346 0 0 0 .434-1.162c.014-.054.028-.107.04-.16.035-.14.065-.28.09-.42l.01-.043.038-.227h-.005A7.16 7.16 0 0 0 12 6Zm-.748-1.829.006.023c.037.134.07.27.099.406H9.863c-.004-.02-.01-.04-.013-.059a6.971 6.971 0 0 0-.133-.529A6.572 6.572 0 0 0 9.333 3h1.462c.19.37.343.763.457 1.172Zm-.68-1.571H9.117l-.002-.002-.042-.072a6.029 6.029 0 0 0-.176-.28c-.01-.013-.019-.028-.028-.042-.068-.1-.14-.197-.214-.293l-.053-.066a5.403 5.403 0 0 0-.207-.245h1.384c.296.291.563.627.793 1ZM7 .4c.092 0 .184.005.276.012l.082.007c.067.007.134.015.2.026l.081.013c.183.032.362.078.539.138l.056.02c.08.029.161.06.24.095l.021.008c.282.125.555.286.815.481H8.005A4.796 4.796 0 0 0 6.807.4H7ZM5 11c-2.033 0-3.75-2.29-3.75-5S2.967 1 5 1s3.75 2.29 3.75 5S7.033 11 5 11Zm3.495.281-.02.008c-.079.034-.16.066-.242.095l-.055.02c-.174.06-.354.105-.539.138l-.08.013c-.067.01-.134.02-.201.026l-.082.007A3.622 3.622 0 0 1 7 11.6h-.192a4.799 4.799 0 0 0 1.197-.8H9.31a4.14 4.14 0 0 1-.815.481Zm1.284-.881H8.395c.071-.08.14-.162.207-.245l.053-.066c.074-.096.146-.194.214-.293l.028-.043c.061-.092.12-.185.176-.28l.042-.071.002-.002h1.455c-.23.373-.497.709-.793 1Zm1.48-2.594-.007.023c-.114.41-.267.801-.457 1.171H9.333c.14-.291.256-.595.353-.908l.03-.103a6.88 6.88 0 0 0 .134-.53c.004-.02.01-.04.013-.059h1.494a6.565 6.565 0 0 1-.099.406ZM11.426 7H9.929l.005-.031.006-.041a6.984 6.984 0 0 0 .046-.506c.008-.14.014-.28.014-.422 0-.142-.006-.282-.014-.422L9.98 5.48a7.028 7.028 0 0 0-.04-.408l-.006-.04L9.929 5h1.498a6.934 6.934 0 0 1 0 2Z" fill="#583150"/></svg>