<svg width="13" height="13" fill="none" xmlns="http://www.w3.org/2000/svg"><path d="M6.4 12.2A5.6 5.6 0 1 0 6.4 1a5.6 5.6 0 0 0 0 11.2Z" fill="#fff" stroke="#5EC1C7" stroke-width="1.05" stroke-linecap="round"/><path d="M6.69 3.8a.3.3 0 0 0-.6 0h.6Zm-.6 5.6a.3.3 0 1 0 .6 0h-.6Zm1.279-3.986a.3.3 0 0 0 .588-.118l-.588.118ZM5.293 7.78a.3.3 0 0 0-.586.128l.586-.128ZM6.39 6.52v-.3c-.444 0-.684-.084-.812-.185-.111-.09-.18-.23-.18-.484h-.6c0 .37.107.714.406.953.284.226.69.315 1.186.315v-.3Zm-1.294-.97h.3c0-.42.406-.829.993-.829v-.6c-.84 0-1.593.603-1.593 1.43h.3ZM7.8 7.648h-.3c0 .314-.116.502-.287.623-.186.132-.469.207-.824.207v.6c.425 0 .847-.087 1.172-.318.34-.242.539-.618.539-1.112h-.3ZM6.39 6.52v.3c.446 0 .718.08.874.2.14.107.236.287.236.63h.6c0-.464-.138-.85-.47-1.105-.313-.242-.747-.325-1.24-.325v.3Zm0-2.097h.3V3.8h-.6v.622h.3Zm0 4.356h-.3V9.4h.6v-.622h-.3Zm0-4.356v.3c.52 0 .906.326.979.692l.294-.059.294-.059c-.139-.694-.813-1.174-1.568-1.174v.3Zm0 4.356v-.3c-.599 0-1.02-.344-1.097-.698L5 7.844l-.293.064c.154.707.89 1.17 1.682 1.17v-.3Z" fill="#5EC1C7"/></svg>