<svg width="16" height="16" fill="none" xmlns="http://www.w3.org/2000/svg"><path d="M8 16A8 8 0 1 0 8 0a8 8 0 0 0 0 16Z" fill="#29A71A"/><path d="M11.527 4.473a4.96 4.96 0 0 0-7.947 5.739l-.526 2.555a.19.19 0 0 0 .03.149.192.192 0 0 0 .203.079l2.505-.594a4.96 4.96 0 0 0 5.735-7.928Zm-.78 6.233a3.886 3.886 0 0 1-4.475.727l-.35-.173-1.535.364.005-.02.318-1.545-.171-.337a3.884 3.884 0 1 1 6.207.984Z" fill="#fff"/><path d="M10.61 9.572c-.188.296-.485.659-.86.749-.654.158-1.658.005-2.908-1.16l-.016-.014C5.727 8.128 5.442 7.28 5.511 6.607c.038-.382.356-.727.624-.952a.357.357 0 0 1 .56.128l.404.909a.355.355 0 0 1-.044.363l-.205.266a.352.352 0 0 0-.032.393c.115.2.39.496.694.77.342.309.72.591.96.688a.347.347 0 0 0 .382-.08l.237-.24a.364.364 0 0 1 .354-.09l.961.273a.363.363 0 0 1 .204.537Z" fill="#fff"/></svg>