<svg width="16" height="16" viewBox="0 0 16 16" fill="none" xmlns="http://www.w3.org/2000/svg">
<path d="M8 16C12.4183 16 16 12.4183 16 8C16 3.58172 12.4183 0 8 0C3.58172 0 0 3.58172 0 8C0 12.4183 3.58172 16 8 16Z" fill="#593251"/>
<path d="M8 4.09937C5.67 4.09937 3.78125 5.68405 3.78125 7.63905C3.78125 8.61437 4.25156 9.49749 5.01219 10.1375V11.6391C5.01216 11.6848 5.02416 11.7297 5.04698 11.7694C5.0698 11.809 5.10264 11.842 5.14221 11.8649C5.18177 11.8879 5.22668 11.9 5.27242 11.9001C5.31815 11.9002 5.36312 11.8883 5.40281 11.8656L6.84031 11.0425C7.22021 11.1331 7.60945 11.1787 8 11.1784C10.33 11.1784 12.2188 9.59374 12.2188 7.63905C12.2188 5.68437 10.33 4.09937 8 4.09937Z" fill="white"/>
</svg>
