<svg width="16" height="16" viewBox="0 0 16 16" fill="none" xmlns="http://www.w3.org/2000/svg">
<path opacity="0.982" fill-rule="evenodd" clip-rule="evenodd" d="M14.4219 1.14062C14.7667 1.0833 14.9646 1.22392 15.0156 1.5625C15.0015 1.66904 14.965 1.768 14.9062 1.85937C12.3437 5.98437 9.78123 10.1094 7.21873 14.2344C6.7587 14.8065 6.18058 14.9679 5.48436 14.7188C5.3802 14.6562 5.27601 14.5938 5.17186 14.5312C3.84373 12.9115 2.51561 11.2917 1.18748 9.67188C0.788404 8.90691 0.908198 8.23503 1.54686 7.65625C1.98558 7.37922 2.45433 7.31672 2.95311 7.46875C3.10912 7.53628 3.25495 7.61962 3.39061 7.71875C4.26561 8.52084 5.14061 9.32291 6.01561 10.125C6.1522 10.2245 6.28764 10.2245 6.42186 10.125C9.04286 7.18116 11.6522 4.22803 14.25 1.26562C14.313 1.22823 14.3703 1.18657 14.4219 1.14062Z" fill="url(#paint0_linear_3392_598)"/>
<defs>
<linearGradient id="paint0_linear_3392_598" x1="7.98644" y1="1.12817" x2="7.98644" y2="14.8322" gradientUnits="userSpaceOnUse">
<stop stop-color="#3399FF"/>
<stop offset="1" stop-color="#8E88FF"/>
</linearGradient>
</defs>
</svg>
