<svg width="12" height="12" viewBox="0 0 12 12" fill="none" xmlns="http://www.w3.org/2000/svg">
<path d="M5.98662 12C2.67863 11.9926 -0.00736025 9.29461 2.06253e-05 5.98661C0.0074015 2.67862 2.7054 -0.00736472 6.01339 1.61549e-05C9.32138 0.00739703 12.0074 2.7054 12 6.01339C11.9926 9.32138 9.29461 12.0074 5.98662 12ZM8.21911 4.61295C8.44361 4.38545 8.44444 4.01745 8.22094 3.78895C8.1052 3.67669 7.95732 3.62036 7.80932 3.62003C7.66132 3.6197 7.5132 3.67537 7.39695 3.78711L6.00184 5.18L4.61295 3.7809C4.4972 3.66864 4.34933 3.61231 4.20133 3.61198C4.05333 3.61165 3.90521 3.66732 3.78896 3.77906C3.56445 4.00656 3.56363 4.37456 3.78712 4.60306L5.18001 5.99817L3.78091 7.38705C3.5564 7.61455 3.55558 7.98255 3.77907 8.21105C4.00657 8.43556 4.37457 8.43638 4.60306 8.21289L5.99818 6.82L7.38706 8.2191C7.61456 8.44361 7.98256 8.44443 8.21106 8.22094C8.43556 7.99344 8.43639 7.62544 8.21289 7.39694L6.82 6.00183L8.21911 4.61295Z" fill="#583150"/>
</svg>
