<svg width="14" height="14" viewBox="0 0 14 14" fill="none" xmlns="http://www.w3.org/2000/svg">
<path d="M7 13C10.3137 13 13 10.3137 13 7C13 3.68629 10.3137 1 7 1C3.68629 1 1 3.68629 1 7C1 10.3137 3.68629 13 7 13Z" fill="white" stroke="#5EC1C7" stroke-width="1.05" stroke-linecap="round"/>
<path d="M9.9367 6.49644L8.62183 7.84144L8.93234 9.74108C8.93899 9.78182 8.93465 9.8237 8.9198 9.86198C8.90496 9.90026 8.88021 9.93342 8.84834 9.95771C8.81647 9.982 8.77877 9.99645 8.73949 9.99942C8.7002 10.0024 8.66091 9.99379 8.62605 9.97455L7.00024 9.07767L5.37465 9.97433C5.33978 9.99356 5.30049 10.0022 5.26121 9.9992C5.22193 9.99623 5.18422 9.98178 5.15235 9.95749C5.12049 9.9332 5.09573 9.90004 5.08089 9.86176C5.06605 9.82347 5.0617 9.7816 5.06836 9.74086L5.37887 7.84122L4.06378 6.49644C4.03556 6.46758 4.01559 6.43101 4.00615 6.39086C3.99671 6.35071 3.99816 6.30859 4.01036 6.26926C4.02255 6.22994 4.04499 6.19498 4.07513 6.16834C4.10528 6.14171 4.14193 6.12446 4.18094 6.11855L5.9982 5.84167L6.81089 4.11347C6.88203 3.96218 7.11845 3.96218 7.18959 4.11347L8.00228 5.84167L9.81955 6.11855C9.85846 6.12461 9.895 6.14195 9.92504 6.1686C9.95509 6.19525 9.97745 6.23017 9.98962 6.26943C10.0018 6.30869 10.0033 6.35074 9.99394 6.39084C9.98459 6.43094 9.96477 6.46751 9.9367 6.49644Z" fill="#5EC1C7"/>
</svg>
