<svg width="13" height="13" viewBox="0 0 13 13" fill="none" xmlns="http://www.w3.org/2000/svg">
<path d="M6.40005 12.2C9.49284 12.2 12 9.69279 12 6.6C12 3.50721 9.49284 1 6.40005 1C3.30725 1 0.800049 3.50721 0.800049 6.6C0.800049 9.69279 3.30725 12.2 6.40005 12.2Z" fill="white" stroke="#5EC1C7" stroke-width="1.05" stroke-linecap="round"/>
<path d="M6.68944 3.7998C6.68944 3.63412 6.55513 3.4998 6.38944 3.4998C6.22375 3.4998 6.08944 3.63412 6.08944 3.7998L6.68944 3.7998ZM6.08944 9.3998C6.08944 9.56549 6.22375 9.6998 6.38944 9.6998C6.55512 9.6998 6.68944 9.56549 6.68944 9.3998H6.08944ZM7.36889 5.41431C7.40145 5.57676 7.55954 5.68207 7.72199 5.64951C7.88445 5.61696 7.98975 5.45887 7.9572 5.29641L7.36889 5.41431ZM5.2931 7.78026C5.25775 7.61839 5.09788 7.51581 4.93601 7.55115C4.77414 7.5865 4.67156 7.74637 4.7069 7.90824L5.2931 7.78026ZM6.38944 6.51927V6.21927C5.94547 6.21927 5.70453 6.13605 5.57732 6.03462C5.46553 5.94548 5.39643 5.80521 5.39643 5.55137H5.09643H4.79643C4.79643 5.92117 4.90364 6.26485 5.20326 6.50375C5.48747 6.73036 5.89304 6.81927 6.38944 6.81927V6.51927ZM5.09643 5.55137H5.39643C5.39643 5.13028 5.80156 4.72215 6.38944 4.72215V4.42215V4.12215C5.5491 4.12215 4.79643 4.72515 4.79643 5.55137H5.09643ZM7.8 7.64849H7.5C7.5 7.96164 7.38361 8.14978 7.21302 8.27106C7.02723 8.40315 6.74438 8.4777 6.38944 8.4777V8.7777V9.0777C6.81353 9.0777 7.23596 8.99094 7.56069 8.76007C7.90063 8.51839 8.1 8.14192 8.1 7.64849H7.8ZM6.38944 6.51927V6.81927C6.83645 6.81927 7.10763 6.89814 7.26404 7.01888C7.40312 7.12624 7.5 7.30558 7.5 7.64849H7.8H8.1C8.1 7.18481 7.96179 6.79953 7.63068 6.54393C7.3169 6.30171 6.8828 6.21927 6.38944 6.21927V6.51927ZM6.38944 4.42215L6.68944 4.42215L6.68944 3.7998L6.38944 3.7998L6.08944 3.7998L6.08944 4.42215L6.38944 4.42215ZM6.38944 8.7777H6.08944V9.3998H6.38944H6.68944V8.7777H6.38944ZM6.38944 4.42215V4.72215C6.91004 4.72215 7.29554 5.04827 7.36889 5.41431L7.66304 5.35536L7.9572 5.29641C7.81804 4.602 7.14397 4.12215 6.38944 4.12215V4.42215ZM6.38944 8.7777V8.4777C5.79108 8.4777 5.37037 8.13418 5.2931 7.78026L5 7.84425L4.7069 7.90824C4.86121 8.61501 5.59654 9.0777 6.38944 9.0777V8.7777Z" fill="#5EC1C7"/>
</svg>
