<svg width="12" height="12" viewBox="0 0 12 12" fill="none" xmlns="http://www.w3.org/2000/svg">
<path d="M4.99963 10.6C6.79462 10.6 8.24975 8.54051 8.24975 6C8.24975 3.45949 6.79462 1.39999 4.99963 1.39999C3.20464 1.39999 1.74951 3.45949 1.74951 6C1.74951 8.54051 3.20464 10.6 4.99963 10.6Z" fill="#9C644D"/>
<path d="M12 6C12 5.6592 11.975 5.3254 11.9292 4.99999H11.9345L11.8952 4.7726C11.8927 4.758 11.8887 4.74401 11.886 4.72959C11.8607 4.58922 11.8309 4.44937 11.7967 4.3102C11.7836 4.25643 11.7699 4.20276 11.7555 4.14921C11.7264 4.04216 11.6946 3.93561 11.66 3.82962C11.6312 3.74099 11.6006 3.65278 11.568 3.56501C11.5408 3.49148 11.5123 3.41827 11.4825 3.3454C11.4322 3.22341 11.378 3.1042 11.3207 2.98601C11.302 2.94741 11.2837 2.90862 11.2642 2.8706C11.239 2.82101 11.2172 2.7694 11.1907 2.72039L11.1252 2.59999H11.1167C10.9069 2.2354 10.6647 1.9002 10.3947 1.59998H10.4334L10.0822 1.27038C9.6009 0.818578 9.06513 0.486984 8.49561 0.274383C8.48087 0.268781 8.4661 0.263977 8.45137 0.258586C8.33663 0.216943 8.2193 0.180027 8.09985 0.147984C8.04491 0.133125 7.98956 0.119254 7.93385 0.106383C7.88334 0.0949922 7.83309 0.0831797 7.78208 0.0737813C7.6765 0.0539586 7.56979 0.038206 7.46232 0.0265781C7.43056 0.0231797 7.39857 0.0205781 7.36658 0.0177891C7.24555 0.00719531 7.12355 0 7.00029 0H5.00021C2.24311 0 0 2.69161 0 6C0 9.30839 2.24309 12 5.00021 12H7.00029C7.12378 12 7.24555 11.9928 7.36681 11.9822C7.39881 11.9794 7.43056 11.9768 7.46256 11.9734C7.56999 11.9616 7.67669 11.9459 7.78232 11.9262C7.83306 11.9168 7.88331 11.905 7.93358 11.8936C7.98955 11.8808 8.04516 11.8669 8.10035 11.852C8.21933 11.8202 8.33616 11.7834 8.45037 11.7418C8.46563 11.7362 8.48087 11.7312 8.49613 11.7254C9.06539 11.5128 9.60117 11.1814 10.0824 10.7296L10.4335 10.4H10.3952C10.6652 10.0998 10.9075 9.76462 11.1172 9.40001H11.1257L11.191 9.27961C11.2175 9.23081 11.2392 9.1792 11.2642 9.12961C11.2842 9.09082 11.3027 9.05121 11.3217 9.01181C11.3785 8.8946 11.4325 8.77622 11.4822 8.65521C11.5127 8.5818 11.5412 8.5072 11.5692 8.43202C11.601 8.34562 11.6317 8.25881 11.66 8.17062C11.6947 8.06416 11.7266 7.95713 11.7557 7.84962C11.77 7.79641 11.7838 7.74302 11.7967 7.68942C11.8309 7.55031 11.8606 7.41053 11.886 7.27022C11.8885 7.25562 11.8927 7.24181 11.8952 7.22721L11.9345 6.99982H11.9292C11.9762 6.66787 11.9998 6.33407 12 6ZM11.2522 4.1712L11.2582 4.1936C11.2953 4.32831 11.3282 4.46376 11.3567 4.5998H9.86315C9.85913 4.57999 9.85366 4.5608 9.84964 4.5412C9.83238 4.45959 9.81363 4.37818 9.79339 4.29701C9.7698 4.2018 9.74421 4.10692 9.71663 4.01241C9.70614 3.97741 9.69612 3.94221 9.68537 3.90741C9.58863 3.5944 9.47287 3.2906 9.33312 2.99981H10.7952C10.9854 3.36961 11.138 3.7616 11.2522 4.1712ZM10.5722 2.59999H9.11664C9.11614 2.59938 9.11587 2.5988 9.11538 2.598C9.10137 2.57379 9.08713 2.55021 9.07286 2.52621C9.01705 2.43195 8.95837 2.33879 8.89687 2.24681C8.88738 2.23261 8.87838 2.21782 8.86863 2.2038C8.80079 2.10472 8.72942 2.00721 8.65461 1.9114C8.63711 1.88899 8.61936 1.86701 8.60187 1.845C8.53573 1.76181 8.46669 1.68011 8.39485 1.60001H9.77892C10.0754 1.89101 10.3422 2.2268 10.5722 2.59999ZM6.99979 0.400008C7.09229 0.400008 7.18431 0.404602 7.27581 0.411609C7.30332 0.413602 7.33057 0.416813 7.35805 0.419414C7.42529 0.426023 7.49229 0.434414 7.5588 0.44482C7.58555 0.449016 7.61256 0.452812 7.63931 0.457617C7.82158 0.490008 8.00108 0.536227 8.17784 0.596016C8.19659 0.602414 8.21484 0.609211 8.23359 0.61582C8.3146 0.644812 8.39511 0.67582 8.4746 0.710625C8.48134 0.713625 8.48834 0.716227 8.49511 0.719227C8.77736 0.844031 9.04986 1.00462 9.30989 1.20002H8.00533C7.6338 0.864422 7.23181 0.596625 6.80728 0.400031H6.99979V0.400008ZM4.99971 11C2.96686 11 1.24956 8.71038 1.24956 6C1.24956 3.28962 2.96686 1.00001 4.99971 1.00001C7.03255 1.00001 8.74985 3.28962 8.74985 6C8.74985 8.71038 7.03255 11 4.99971 11ZM8.49484 11.281C8.48834 11.2838 8.48184 11.2864 8.47533 11.2892C8.39619 11.3235 8.31537 11.3553 8.23307 11.3844C8.21481 11.3908 8.19656 11.3976 8.17807 11.4038C8.00407 11.4631 7.82364 11.5095 7.63905 11.5424C7.61253 11.5472 7.58578 11.551 7.5588 11.5552C7.49219 11.5656 7.42514 11.5741 7.35779 11.5806C7.33054 11.5832 7.30329 11.5862 7.27578 11.5884C7.18402 11.5954 7.09229 11.6 6.99977 11.6H6.80751C7.23178 11.4034 7.6338 11.1356 8.0053 10.8H9.30986C9.04986 10.9956 8.7771 11.156 8.49484 11.281ZM9.77865 10.4H8.39459C8.46643 10.3198 8.53554 10.2381 8.60184 10.155C8.61959 10.133 8.63735 10.111 8.65458 10.0886C8.72937 9.99278 8.80074 9.89527 8.8686 9.7962C8.87836 9.78199 8.88735 9.76739 8.89684 9.75319C8.95835 9.66122 9.01703 9.56806 9.07283 9.47379C9.08707 9.44979 9.10134 9.42619 9.11535 9.402C9.11558 9.40139 9.11611 9.4008 9.11661 9.40001H10.5722C10.3422 9.7732 10.0754 10.109 9.77865 10.4ZM11.2582 7.80621L11.2522 7.82862C11.1379 8.23821 10.9854 8.63023 10.7952 9.00002H9.33312C9.47313 8.70902 9.58889 8.40483 9.68563 8.09182C9.69612 8.05781 9.70614 8.02322 9.71613 7.98902C9.74388 7.89363 9.77013 7.79782 9.79389 7.70062C9.81383 7.62023 9.83242 7.53962 9.84964 7.45882C9.85366 7.43902 9.85913 7.41982 9.86315 7.40002H11.3567C11.3283 7.53607 11.2954 7.67152 11.2582 7.80621ZM11.4267 7.00001H9.92916C9.93065 6.98941 9.93241 6.97901 9.9339 6.9686C9.93566 6.9548 9.93815 6.94139 9.93991 6.92761C9.9574 6.79322 9.97017 6.65721 9.9799 6.52001C9.98239 6.48722 9.98441 6.45441 9.98614 6.42162C9.99414 6.28221 9.99988 6.14182 9.99988 6.00002C9.99988 5.85823 9.99437 5.71781 9.98614 5.57843C9.98415 5.54564 9.98216 5.51283 9.9799 5.48004C9.97015 5.34305 9.9574 5.20683 9.93991 5.07244C9.93815 5.05863 9.93566 5.04523 9.9339 5.03145C9.93241 5.02085 9.93065 5.01045 9.92916 5.00004H11.4267C11.474 5.32484 11.5 5.65863 11.5 6.00005C11.5 6.34146 11.474 6.67521 11.4267 7.00001Z" fill="#9C644D"/>
</svg>
