<svg width="16" height="16" viewBox="0 0 16 16" fill="none" xmlns="http://www.w3.org/2000/svg">
<path d="M16 8.04811C16 3.65554 12.4391 0.0946655 8.04658 0.0946655C3.65402 0.0946655 0.0931396 3.65554 0.0931396 8.04811C0.0931396 12.4407 3.65402 16.0016 8.04658 16.0016C12.4391 16.0016 16 12.4407 16 8.04811Z" fill="url(#paint0_linear_2829_1076)"/>
<path d="M14.0326 2.81557C12.873 4.94417 11.2332 7.13973 9.18411 9.18879C7.13505 11.2378 4.93948 12.8746 2.81403 14.0341C2.68077 13.9183 2.55136 13.7976 2.42578 13.672C1.6667 12.9383 1.0613 12.0608 0.644871 11.0906C0.228444 10.1205 0.0093248 9.07719 0.000291197 8.0215C-0.0087424 6.96581 0.19249 5.91888 0.592255 4.94177C0.99202 3.96466 1.58232 3.07691 2.32872 2.33029C3.07513 1.58368 3.96271 0.993133 4.93972 0.593096C5.91672 0.193058 6.96359 -0.00846639 8.01928 0.000272507C9.07497 0.0090114 10.1184 0.227839 11.0886 0.643996C12.0588 1.06015 12.9365 1.66531 13.6705 2.42418C13.7961 2.54976 13.9168 2.68023 14.0326 2.81557Z" fill="white" fill-opacity="0.0627451"/>
<path d="M9.93021 3.86209H6.16279C5.55217 3.86209 4.96657 4.10466 4.53481 4.53642C4.10304 4.96819 3.86047 5.55379 3.86047 6.1644V9.93182C3.86047 10.5424 4.10304 11.128 4.53481 11.5598C4.96657 11.9916 5.55217 12.2341 6.16279 12.2341H9.93021C10.5408 12.2341 11.1264 11.9916 11.5582 11.5598C11.99 11.128 12.2325 10.5424 12.2325 9.93182V6.1644C12.2325 5.55379 11.99 4.96819 11.5582 4.53642C11.1264 4.10466 10.5408 3.86209 9.93021 3.86209ZM11.5 9.60113C11.5 10.1052 11.2997 10.5885 10.9433 10.945C10.5869 11.3014 10.1035 11.5016 9.59951 11.5016H6.49348C5.98945 11.5016 5.50606 11.3014 5.14966 10.945C4.79325 10.5885 4.59303 10.1052 4.59303 9.60113V6.4951C4.59303 5.99107 4.79325 5.50768 5.14966 5.15127C5.50606 4.79487 5.98945 4.59464 6.49348 4.59464H9.59951C10.1035 4.59464 10.5869 4.79487 10.9433 5.15127C11.2997 5.50768 11.5 5.99107 11.5 6.4951V9.60113Z" fill="white"/>
<path d="M9.57338 6.53694L9.5535 6.51706L9.53676 6.50032C9.14107 6.106 8.60515 5.88471 8.04653 5.88497C7.76444 5.88689 7.48548 5.94437 7.22561 6.05413C6.96574 6.16389 6.73004 6.32377 6.53197 6.52465C6.33391 6.72553 6.17737 6.96347 6.0713 7.22487C5.96522 7.48627 5.91169 7.766 5.91375 8.0481C5.91333 8.62059 6.13899 9.17009 6.54166 9.57704C6.73889 9.77668 6.97392 9.93502 7.23301 10.0428C7.49211 10.1506 7.77009 10.2057 8.05072 10.2049C8.47166 10.1961 8.88094 10.065 9.22864 9.82755C9.57634 9.59011 9.84743 9.25663 10.0089 8.86777C10.1703 8.4789 10.2151 8.05147 10.1377 7.6376C10.0604 7.22372 9.86432 6.84129 9.57338 6.53694ZM8.04653 9.46716C7.76506 9.4711 7.48876 9.39124 7.2528 9.23773C7.01684 9.08422 6.83186 8.864 6.7214 8.60507C6.61094 8.34614 6.57998 8.06021 6.63247 7.78364C6.68496 7.50708 6.81852 7.25237 7.01617 7.05191C7.21381 6.85146 7.46661 6.71432 7.74241 6.65793C8.01821 6.60155 8.30455 6.62847 8.56501 6.73526C8.82547 6.84206 9.04828 7.02391 9.20511 7.25768C9.36193 7.49146 9.44568 7.76659 9.44571 8.0481C9.44709 8.23317 9.41199 8.41669 9.3424 8.58819C9.27282 8.75968 9.17012 8.91578 9.04018 9.04757C8.91024 9.17936 8.75561 9.28425 8.58511 9.35624C8.41461 9.42824 8.2316 9.46593 8.04653 9.46716ZM10.8124 5.78555C10.813 5.85271 10.8003 5.91931 10.7751 5.98155C10.7499 6.04379 10.7126 6.10044 10.6655 6.14827C10.6183 6.19609 10.5622 6.23415 10.5003 6.26026C10.4385 6.28637 10.372 6.30002 10.3049 6.30043C10.2383 6.3004 10.1724 6.28716 10.1109 6.26147C10.0495 6.23578 9.99378 6.19816 9.94699 6.15078C9.87609 6.07885 9.82787 5.98769 9.80829 5.88861C9.78872 5.78952 9.79866 5.68688 9.83688 5.59339C9.8751 5.4999 9.93992 5.41969 10.0233 5.36269C10.1067 5.3057 10.205 5.27443 10.3059 5.27277C10.4241 5.27274 10.5386 5.31423 10.6293 5.38997L10.6398 5.40044C10.6567 5.41418 10.6721 5.42961 10.6858 5.44649L10.6973 5.45904C10.7722 5.55133 10.8129 5.66669 10.8124 5.78555Z" fill="white"/>
<defs>
<linearGradient id="paint0_linear_2829_1076" x1="2.42266" y1="2.42419" x2="13.6705" y2="13.672" gradientUnits="userSpaceOnUse">
<stop stop-color="#FAE100"/>
<stop offset="0.15" stop-color="#FCB720"/>
<stop offset="0.3" stop-color="#FF7950"/>
<stop offset="0.5" stop-color="#FF1C74"/>
<stop offset="1" stop-color="#6C1CD1"/>
</linearGradient>
</defs>
</svg>
