<svg width="16" height="15" viewBox="0 0 16 15" fill="none" xmlns="http://www.w3.org/2000/svg">
<path d="M12.4353 14.9299L8 12.2134L3.56471 14.9299C3.40358 15.0298 3.19574 15.0222 3.04058 14.9119C2.96494 14.8583 2.90745 14.7837 2.87554 14.6978C2.84364 14.6118 2.83877 14.5185 2.86158 14.4298L4.13049 9.46149L0.167602 6.17291C0.0959948 6.11417 0.0439622 6.03582 0.0181862 5.94792C-0.00758985 5.86002 -0.00593241 5.76659 0.0229456 5.67962C0.0517893 5.59257 0.106555 5.51595 0.180211 5.45958C0.253868 5.40322 0.343054 5.36969 0.436322 5.36329L5.60865 5.00978L7.56512 0.260091C7.70887 -0.0866969 8.29113 -0.0866969 8.43488 0.260091L10.3914 5.00978L15.5637 5.36329C15.6569 5.36969 15.7461 5.40322 15.8198 5.45958C15.8934 5.51595 15.9482 5.59257 15.9771 5.67962C16.0059 5.76659 16.0076 5.86002 15.9818 5.94792C15.956 6.03582 15.904 6.11417 15.8324 6.17291L11.8695 9.46155L13.1384 14.4299C13.1612 14.5186 13.1563 14.6119 13.1244 14.6978C13.0925 14.7838 13.035 14.8584 12.9594 14.912C12.8838 14.9658 12.7935 14.9963 12.7001 14.9995C12.6067 15.0027 12.5145 14.9785 12.4353 14.9299Z" fill="#FFD900"/>
</svg>
