<svg width="16" height="16" viewBox="0 0 16 16" fill="none" xmlns="http://www.w3.org/2000/svg">
<path d="M8 16C12.4183 16 16 12.4183 16 8C16 3.58172 12.4183 0 8 0C3.58172 0 0 3.58172 0 8C0 12.4183 3.58172 16 8 16Z" fill="#039BE5"/>
<path d="M3.6606 7.82668L11.3739 4.85268C11.7319 4.72335 12.0446 4.94002 11.9286 5.48135L11.9293 5.48068L10.6159 11.668C10.5186 12.1067 10.2579 12.2134 9.89326 12.0067L7.89326 10.5327L6.9286 11.462C6.82193 11.5687 6.73193 11.6587 6.52526 11.6587L6.66726 9.62335L10.3739 6.27468C10.5353 6.13268 10.3379 6.05268 10.1253 6.19402L5.5446 9.07802L3.56993 8.46202C3.14126 8.32602 3.13193 8.03335 3.6606 7.82668Z" fill="white"/>
</svg>
