<svg width="16" height="16" viewBox="0 0 16 16" fill="none" xmlns="http://www.w3.org/2000/svg">
<path d="M8 16C12.4183 16 16 12.4183 16 8C16 3.58172 12.4183 0 8 0C3.58172 0 0 3.58172 0 8C0 12.4183 3.58172 16 8 16Z" fill="#29A71A"/>
<path d="M11.5272 4.47274C10.6949 3.6321 9.58953 3.11657 8.41056 3.01912C7.2316 2.92168 6.05662 3.24875 5.09757 3.94132C4.13851 4.6339 3.45852 5.6464 3.18024 6.79618C2.90195 7.94597 3.04371 9.15735 3.57992 10.2118L3.05356 12.7673C3.0481 12.7927 3.04794 12.819 3.0531 12.8445C3.05827 12.87 3.06863 12.8942 3.08356 12.9155C3.10542 12.9478 3.13663 12.9727 3.17302 12.9868C3.2094 13.001 3.24924 13.0037 3.28719 12.9946L5.79174 12.4009C6.84325 12.9236 8.04608 13.0562 9.18621 12.7752C10.3263 12.4943 11.3298 11.8179 12.0181 10.8665C12.7063 9.91514 13.0347 8.75043 12.9448 7.57964C12.855 6.40885 12.3526 5.30792 11.5272 4.47274ZM10.7463 10.7055C10.1704 11.2797 9.42882 11.6588 8.62607 11.7893C7.82332 11.9198 6.99986 11.7951 6.27174 11.4327L5.92265 11.26L4.38719 11.6236L4.39174 11.6046L4.70992 10.0591L4.53901 9.72183C4.16698 8.99117 4.03574 8.1615 4.16409 7.35169C4.29245 6.54187 4.67381 5.79345 5.25356 5.21365C5.98202 4.48542 6.96989 4.07632 7.99992 4.07632C9.02996 4.07632 10.0178 4.48542 10.7463 5.21365C10.7525 5.22076 10.7592 5.22745 10.7663 5.23365C11.4857 5.96376 11.8873 6.94868 11.8836 7.97368C11.8798 8.99868 11.471 9.98064 10.7463 10.7055Z" fill="white"/>
<path d="M10.61 9.57182C10.4218 9.86819 10.1246 10.2309 9.75093 10.3209C9.09638 10.4791 8.09184 10.3264 6.84184 9.16091L6.82638 9.14728C5.72729 8.12819 5.44184 7.28 5.51093 6.60728C5.54911 6.22546 5.86729 5.88 6.13548 5.65455C6.17787 5.61836 6.22815 5.5926 6.28229 5.57932C6.33643 5.56604 6.39292 5.56561 6.44725 5.57807C6.50158 5.59052 6.55225 5.61552 6.59519 5.65106C6.63813 5.6866 6.67217 5.73169 6.69457 5.78273L7.09911 6.69182C7.1254 6.75077 7.13514 6.81576 7.12729 6.87982C7.11945 6.94388 7.09431 7.0046 7.05457 7.05546L6.85002 7.32091C6.80613 7.37573 6.77965 7.44242 6.77398 7.51241C6.76831 7.58239 6.78371 7.65248 6.8182 7.71364C6.93275 7.91455 7.20729 8.21 7.51184 8.48364C7.85366 8.79273 8.23275 9.07546 8.47275 9.17182C8.53697 9.19806 8.60757 9.20446 8.67546 9.1902C8.74335 9.17594 8.80542 9.14168 8.85366 9.09182L9.09093 8.85273C9.13671 8.80759 9.19365 8.77539 9.25593 8.75942C9.31821 8.74345 9.38362 8.74428 9.44548 8.76182L10.4064 9.03455C10.4594 9.05081 10.508 9.07898 10.5484 9.11689C10.5889 9.15481 10.6201 9.20147 10.6398 9.25332C10.6594 9.30516 10.667 9.36082 10.6618 9.41602C10.6566 9.47122 10.6389 9.52451 10.61 9.57182Z" fill="white"/>
</svg>
