<svg width="97" height="84" viewBox="0 0 97 84" fill="none" xmlns="http://www.w3.org/2000/svg">
<path d="M48.0315 71.6274C29.209 71.6274 13.9502 56.3687 13.9502 37.5462C13.9502 28.3731 17.5742 20.0465 23.4686 13.92" stroke="#9C644D" stroke-width="2.77277" stroke-miterlimit="10" stroke-linecap="round" stroke-linejoin="round"/>
<path d="M13.9501 43.473C15.1074 42.3156 13.3918 38.7238 10.1183 35.4503C6.84474 32.1769 3.25282 30.4615 2.0955 31.6188C0.938189 32.7762 2.65373 36.3681 5.92728 39.6415C9.20082 42.9149 12.7927 44.6303 13.9501 43.473Z" stroke="#9C644D" stroke-width="2.77277" stroke-miterlimit="10" stroke-linecap="round" stroke-linejoin="round"/>
<path d="M21.9727 39.6414C25.2461 36.3679 26.9616 32.776 25.8042 31.6187C24.6469 30.4613 21.055 32.1769 17.7816 35.4504C14.5081 38.724 12.7927 42.3159 13.9501 43.4732C15.1074 44.6305 18.6993 42.915 21.9727 39.6414Z" stroke="#9C644D" stroke-width="2.77277" stroke-miterlimit="10" stroke-linecap="round" stroke-linejoin="round"/>
<path d="M15.5177 25.7147C17.0976 25.287 17.3977 21.3179 16.188 16.8493C14.9784 12.3807 12.7171 9.10492 11.1372 9.53258C9.55734 9.96025 9.25722 13.9294 10.4669 18.398C11.6765 22.8666 13.9379 26.1424 15.5177 25.7147Z" stroke="#9C644D" stroke-width="2.77277" stroke-miterlimit="10" stroke-linecap="round" stroke-linejoin="round"/>
<path d="M15.5168 25.7154C17.2458 23.33 19.7675 21.4946 22.8336 20.6647C25.9 19.8347 29.0033 20.1476 31.6991 21.3353C29.9702 23.7206 27.4485 25.556 24.3823 26.386C23.6515 26.5841 22.9052 26.7199 22.1514 26.7919" stroke="#9C644D" stroke-width="2.77277" stroke-miterlimit="10" stroke-linecap="round" stroke-linejoin="round"/>
<path d="M33.0493 10.9132C37.2693 7.87002 39.8182 4.19356 38.7423 2.70155C37.6663 1.20955 33.3731 2.467 29.1531 5.51015C24.933 8.5533 22.3842 12.2298 23.4601 13.7218C24.536 15.2138 28.8292 13.9563 33.0493 10.9132Z" stroke="#9C644D" stroke-width="2.77277" stroke-miterlimit="10" stroke-linecap="round" stroke-linejoin="round"/>
<path d="M21.3352 59.4999C21.7688 57.9217 18.5015 55.6481 14.0374 54.4218C9.57342 53.1955 5.60313 53.4807 5.16956 55.059C4.736 56.6372 8.00333 58.9108 12.4674 60.1371C16.9314 61.3634 20.9017 61.0782 21.3352 59.4999Z" stroke="#9C644D" stroke-width="2.77277" stroke-miterlimit="10" stroke-linecap="round" stroke-linejoin="round"/>
<path d="M26.4134 52.2024C27.6397 47.7384 27.3544 43.7681 25.7761 43.3345C24.1979 42.9009 21.9243 46.1683 20.698 50.6323C19.4717 55.0963 19.757 59.0666 21.3352 59.5002C22.9135 59.9337 25.187 56.6664 26.4134 52.2024Z" stroke="#9C644D" stroke-width="2.77277" stroke-miterlimit="10" stroke-linecap="round" stroke-linejoin="round"/>
<path d="M28.4573 74.8936C32.9397 73.7362 36.2417 71.5133 35.8325 69.9286C35.4233 68.3438 31.4579 67.9974 26.9755 69.1548C22.4931 70.3121 19.1911 72.5351 19.6003 74.1198C20.0095 75.7046 23.9749 76.051 28.4573 74.8936Z" stroke="#9C644D" stroke-width="2.77277" stroke-miterlimit="10" stroke-linecap="round" stroke-linejoin="round"/>
<path d="M35.8324 69.9285C37.4172 69.5193 37.7636 65.5539 36.6062 61.0715C35.4488 56.5891 33.2259 53.2872 31.6412 53.6963C30.0564 54.1055 29.71 58.0709 30.8674 62.5533C32.0248 67.0357 34.2477 70.3377 35.8324 69.9285Z" stroke="#9C644D" stroke-width="2.77277" stroke-miterlimit="10" stroke-linecap="round" stroke-linejoin="round"/>
<path d="M48.0315 71.6274C66.854 71.6274 82.1128 56.3687 82.1128 37.5462C82.1128 28.3731 78.4888 20.0465 72.5944 13.92" stroke="#9C644D" stroke-width="2.77277" stroke-miterlimit="10" stroke-linecap="round" stroke-linejoin="round"/>
<path d="M90.1346 39.6421C93.408 36.3686 95.1234 32.7766 93.9661 31.6193C92.8087 30.462 89.2169 32.1776 85.9434 35.4511C82.67 38.7246 80.9546 42.3165 82.1119 43.4739C83.2693 44.6312 86.8612 42.9156 90.1346 39.6421Z" stroke="#9C644D" stroke-width="2.77277" stroke-miterlimit="10" stroke-linecap="round" stroke-linejoin="round"/>
<path d="M82.1131 43.4734C81.8011 40.5441 80.5277 37.6968 78.2815 35.4507C76.0354 33.2046 73.1881 31.9311 70.2588 31.6191C70.5708 34.5485 71.8443 37.3957 74.0904 39.6418C74.5869 40.1387 75.1217 40.5957 75.6897 41.0088" stroke="#9C644D" stroke-width="2.77277" stroke-miterlimit="10" stroke-linecap="round" stroke-linejoin="round"/>
<path d="M85.597 18.3955C86.8066 13.927 86.5065 9.95777 84.9267 9.5301C83.3468 9.10244 81.0855 12.3782 79.8758 16.8468C78.6662 21.3154 78.9663 25.2846 80.5461 25.7122C82.126 26.1399 84.3873 22.8641 85.597 18.3955Z" stroke="#9C644D" stroke-width="2.77277" stroke-miterlimit="10" stroke-linecap="round" stroke-linejoin="round"/>
<path d="M80.5464 25.713C80.974 24.1331 77.6982 21.8718 73.2296 20.6621C68.7611 19.4525 64.7919 19.7526 64.3642 21.3324C63.9365 22.9123 67.2123 25.1736 71.6809 26.3833C76.1495 27.5929 80.1187 27.2928 80.5464 25.713Z" stroke="#9C644D" stroke-width="2.77277" stroke-miterlimit="10" stroke-linecap="round" stroke-linejoin="round"/>
<path d="M72.605 13.7269C73.681 12.2349 71.1321 8.55844 66.9121 5.51529C62.692 2.47214 58.3988 1.21469 57.3229 2.70669C56.247 4.1987 58.7958 7.87516 63.0158 10.9183C67.2359 13.9615 71.5291 15.2189 72.605 13.7269Z" stroke="#9C644D" stroke-width="2.77277" stroke-miterlimit="10" stroke-linecap="round" stroke-linejoin="round"/>
<path d="M83.5979 60.1456C88.0621 58.9196 91.3296 56.6463 90.8962 55.0681C90.4627 53.4898 86.4925 53.2041 82.0283 54.4301C77.5642 55.656 74.2967 57.9293 74.7301 59.5076C75.1635 61.0859 79.1338 61.3715 83.5979 60.1456Z" stroke="#9C644D" stroke-width="2.77277" stroke-miterlimit="10" stroke-linecap="round" stroke-linejoin="round"/>
<path d="M74.7289 59.5082C76.3072 59.0748 76.5928 55.1045 75.3669 50.6404C74.1409 46.1763 71.8677 42.9088 70.2894 43.3422C68.7111 43.7756 68.4255 47.7459 69.6514 52.21C70.8773 56.6741 73.1506 59.9417 74.7289 59.5082Z" stroke="#9C644D" stroke-width="2.77277" stroke-miterlimit="10" stroke-linecap="round" stroke-linejoin="round"/>
<path d="M76.4575 74.1203C76.8667 72.5356 73.5647 70.3127 69.0823 69.1553C64.5999 67.9979 60.6345 68.3443 60.2253 69.9291C59.8161 71.5138 63.1181 73.7367 67.6005 74.8941C72.0829 76.0515 76.0483 75.7051 76.4575 74.1203Z" stroke="#9C644D" stroke-width="2.77277" stroke-miterlimit="10" stroke-linecap="round" stroke-linejoin="round"/>
<path d="M65.1909 62.5535C66.3483 58.0712 66.0019 54.1057 64.4172 53.6965C62.8324 53.2874 60.6095 56.5893 59.4521 61.0717C58.2947 65.5541 58.6411 69.5195 60.2259 69.9287C61.8106 70.3379 64.0336 67.0359 65.1909 62.5535Z" stroke="#9C644D" stroke-width="2.77277" stroke-miterlimit="10" stroke-linecap="round" stroke-linejoin="round"/>
<path d="M40.6223 82L48.0314 71.6274L55.4404 82" stroke="#9C644D" stroke-width="2.77277" stroke-miterlimit="10" stroke-linecap="round" stroke-linejoin="round"/>
</svg>
